<?xml version="1.0" standalone="no"?>
<!DOCTYPE svg PUBLIC "-//W3C//DTD SVG 20010904//EN"
 "http://www.w3.org/TR/2001/REC-SVG-20010904/DTD/svg10.dtd">
<svg version="1.0" xmlns="http://www.w3.org/2000/svg"
 width="101.000000pt" height="120.000000pt" viewBox="0 0 101.000000 120.000000"
 preserveAspectRatio="xMidYMid meet">
<metadata>
Created by potrace 1.13, written by Peter Selinger 2001-2015
</metadata>
<g transform="translate(0.000000,120.000000) scale(0.100000,-0.100000)"
fill="#000000" stroke="none">
<path d="M635 1154 l7 -46 -30 33 -31 34 -11 -30 c-14 -36 -1 -93 35 -166 30
-58 32 -113 6 -156 -17 -26 -29 -33 -78 -43 -219 -43 -369 -134 -434 -262 -31
-62 -69 -187 -69 -229 0 -15 -7 -40 -17 -56 -23 -41 -11 -79 32 -105 19 -11
35 -24 35 -29 0 -20 66 -40 148 -45 48 -3 107 -12 131 -20 59 -19 150 -19 157
0 7 18 -20 72 -42 84 -13 7 -6 15 37 41 30 17 71 45 91 62 20 17 41 28 47 25
5 -4 15 -32 21 -63 12 -54 61 -145 94 -172 20 -17 93 -9 114 13 15 14 14 18
-6 45 -36 48 -47 121 -28 179 22 64 56 243 56 290 0 66 26 144 54 165 31 22
56 67 56 99 0 32 -52 120 -89 151 -17 14 -55 31 -86 37 -54 11 -55 12 -85 74
-37 74 -85 136 -107 136 -13 0 -14 -8 -8 -46z"/>
</g>
</svg>
